# xmcd
#
# Track frame offsets:
#	150
#	15158
#	32670
#	51579
#	70760
#	89868
#	105517
#	122918
#	143782
#
# Disc length: 2374 seconds
#
# Revision: 0
# Processed by: cddbd v1.5.1PL0 Copyright (c) Steve Scherf et al.
# Submitted via: dBpowerAMP V4.0
#
DISCID=79094409
DTITLE=Rvertown - A Little Disaster
DYEAR=2002
DGENRE=Country
TTITLE0=Little Girl
TTITLE1=Where I Belong
TTITLE2=Run To You
TTITLE3=Just Another Night
TTITLE4=Sunset Town
TTITLE5=Here To Stay
TTITLE6=Song About Heroes
TTITLE7=Here You Are
TTITLE8=After The Lights Go Out
EXTD=
EXTT0=
EXTT1=
EXTT2=
EXTT3=
EXTT4=
EXTT5=
EXTT6=
EXTT7=
EXTT8=
PLAYORDER=
